:FULLY-SPECIFIED
:FORCE-ALL-JOINTS-BE-3DOF
:DEGREES
2956
root -5.89556 13.2637 -28.9236 1238.85 -66.6604 -155.77
lfemur -67.6946 43.0152 -6.70772
ltibia 77.1758 0 0
lfoot -7.80838 -2.63224 0
ltoes -38.8488 0 0
rfemur -34.1502 -17.5999 22.8686
rtibia 90.4307 0 0
rfoot -40.4264 -30.1528 0
rtoes -13.7607 0 0
lowerback 16.2391 5.27506 1.37901
upperback -4.40684 7.58793 1.45121
thorax -14.1067 3.4561 -1.27605
lowerneck -2.85775 9.30698 1.5333
upperneck 8.12015 12.1874 1.73474
head 3.11645 6.13242 0.757797
lclavicle 9.23238e-15 9.44298e-15 0
lhumerus 5.95028 14.2757 82.8361
lradius 90.5912 0 0
lwrist -18.0156 0 0
lhand -38.663 388.681 0
lfingers 7.12502 0 0
lthumb -11.6783 -661.675 0
rclavicle 9.23238e-15 9.44298e-15 0
rhumerus -56.735 50.0998 -110.309
rradius 112.663 0 0
rwrist -81.6117 0 0
rhand 6.77398 -385.505 0
rfingers 7.12502 0 0
rthumb 32.0554 307.353 0
2957
root -5.84181 13.3119 -28.9902 1237.89 -66.6806 -154.764
lfemur -67.6539 42.7486 -6.76349
ltibia 76.8722 0 0
lfoot -7.79563 -2.50621 0
ltoes -38.8091 0 0
rfemur -34.163 -17.4729 22.9495
rtibia 90.2993 0 0
rfoot -40.3311 -30.1467 0
rtoes -13.7441 0 0
lowerback 16.2355 5.26151 1.37589
upperback -4.38797 7.56746 1.44414
thorax -14.0824 3.44713 -1.27536
lowerneck -2.83382 9.22662 1.47284
upperneck 8.04095 12.0824 1.7566
head 3.08787 6.07948 0.771897
lclavicle 8.72193e-15 9.13756e-15 0
lhumerus 6.02499 14.1689 82.8156
lradius 90.5233 0 0
lwrist -17.8801 0 0
lhand -38.5697 388.689 0
lfingers 7.12502 0 0
lthumb -11.5883 -661.664 0
rclavicle 8.72193e-15 9.13756e-15 0
rhumerus -56.2105 49.8401 -110.007
rradius 112.598 0 0
rwrist -81.4492 0 0
rhand 6.61192 -385.545 0
rfingers 7.12502 0 0
rthumb 31.8999 307.294 0
2958
root -5.78805 13.36 -29.0568 1237.07 -66.6977 -153.914
lfemur -67.619 42.5235 -6.81047
ltibia 76.6154 0 0
lfoot -7.78437 -2.40059 0
ltoes -38.7731 0 0
rfemur -34.173 -17.3658 23.0178
rtibia 90.1877 0 0
rfoot -40.2508 -30.141 0
rtoes -13.7297 0 0
lowerback 16.2323 5.25019 1.37324
upperback -4.37209 7.55032 1.43821
thorax -14.062 3.43962 -1.27477
lowerneck -2.81348 9.15867 1.42192
upperneck 7.97435 11.9935 1.77524
head 3.06382 6.0347 0.78384
lclavicle 8.31955e-15 8.88306e-15 0
lhumerus 6.08802 14.078 82.7987
lradius 90.4663 0 0
lwrist -17.7658 0 0
lhand -38.4915 388.697 0
lfingers 7.12502 0 0
lthumb -11.5128 -661.653 0
rclavicle 8.31955e-15 8.88306e-15 0
rhumerus -55.7675 49.6207 -109.752
rradius 112.544 0 0
rwrist -81.3122 0 0
rhand 6.4752 -385.578 0
rfingers 7.12502 0 0
rthumb 31.7688 307.244 0
2959
root -5.7343 13.4082 -29.1234 1236.38 -66.7121 -153.194
lfemur -67.589 42.3336 -6.84999
ltibia 76.3979 0 0
lfoot -7.7742 -2.3124 0
ltoes -38.7394 0 0
rfemur -34.1806 -17.2757 23.0757
rtibia 90.0925 0 0
rfoot -40.1829 -30.1357 0
rtoes -13.7169 0 0
lowerback 16.2296 5.24076 1.37096
upperback -4.35876 7.53603 1.43323
thorax -14.0449 3.43337 -1.27427
lowerneck -2.79612 9.10112 1.37907
upperneck 7.91846 11.9182 1.79122
head 3.04359 5.99677 0.793981
lclavicle 8.01751e-15 8.67254e-15 0
lhumerus 6.14117 14.0001 82.7851
lradius 90.4186 0 0
lwrist -17.6693 0 0
lhand -38.4259 388.705 0
lfingers 7.12502 0 0
lthumb -11.4495 -661.643 0
rclavicle 8.01751e-15 8.67254e-15 0
rhumerus -55.3928 49.4351 -109.536
rradius 112.498 0 0
rwrist -81.1969 0 0
rhand 6.35986 -385.607 0
rfingers 7.12502 0 0
rthumb 31.6581 307.202 0
2960
root -5.68054 13.4564 -29.19 1235.79 -66.7245 -152.579
lfemur -67.5627 42.1722 -6.88343
ltibia 76.212 0 0
lfoot -7.76473 -2.23867 0
ltoes -38.7068 0 0
rfemur -34.1859 -17.1993 23.1249
rtibia 90.0104 0 0
rfoot -40.1251 -30.1304 0
rtoes -13.7054 0 0
lowerback 16.2273 5.23292 1.369
upperback -4.34752 7.52411 1.42906
thorax -14.0304 3.42817 -1.27383
lowerneck -2.78113 9.05198 1.34281
upperneck 7.87135 11.8538 1.80512
head 3.0265 5.96437 0.802675
lclavicle 7.80812e-15 8.49904e-15 0
lhumerus 6.1863 13.9326 82.7744
lradius 90.3787 0 0
lwrist -17.5874 0 0
lhand -38.371 388.714 0
lfingers 7.12502 0 0
lthumb -11.3965 -661.633 0
rclavicle 7.80812e-15 8.49904e-15 0
rhumerus -55.0735 49.277 -109.353
rradius 112.459 0 0
rwrist -81.0993 0 0
rhand 6.2619 -385.631 0
rfingers 7.12502 0 0
rthumb 31.5642 307.166 0
2961
root -5.62679 13.5045 -29.2565 1235.28 -66.7353 -152.045
lfemur -67.539 42.0327 -6.91214
ltibia 76.0503 0 0
lfoot -7.75554 -2.17642 0
ltoes -38.6737 0 0
rfemur -34.1891 -17.1337 23.1677
rtibia 89.938 0 0
rfoot -40.0752 -30.1249 0
rtoes -13.6947 0 0
lowerback 16.2252 5.22634 1.36725
upperback -4.33791 7.51409 1.4255
thorax -14.0179 3.4238 -1.27345
lowerneck -2.76788 9.00924 1.31169
upperneck 7.83114 11.7978 1.81752
head 3.01186 5.93618 0.810276
lclavicle 7.68366e-15 8.35559e-15 0
lhumerus 6.22523 13.8726 82.7661
lradius 90.3448 0 0
lwrist -17.5167 0 0
lhand -38.3243 388.723 0
lfingers 7.12502 0 0
lthumb -11.3514 -661.622 0
rclavicle 7.68366e-15 8.35559e-15 0
rhumerus -54.7966 49.1398 -109.193
rradius 112.425 0 0
rwrist -81.0154 0 0
rhand 6.17736 -385.653 0
rfingers 7.12502 0 0
rthumb 31.483 307.135 0
2962
root -5.57304 13.5527 -29.3231 1234.81 -66.745 -151.566
lfemur -67.5168 41.9087 -6.93746
ltibia 75.9051 0 0
lfoot -7.74625 -2.12268 0
ltoes -38.6388 0 0
rfemur -34.1905 -17.0756 23.2059
rtibia 89.872 0 0
rfoot -40.0307 -30.1191 0
rtoes -13.6842 0 0
lowerback 16.2232 5.22072 1.36565
upperback -4.32948 7.50549 1.42241
thorax -14.007 3.42007 -1.27309
lowerneck -2.75578 8.97091 1.28422
upperneck 7.7959 11.7475 1.82897
head 2.99898 5.91088 0.817138
lclavicle 7.63644e-15 8.23525e-15 0
lhumerus 6.2598 13.8174 82.7598
lradius 90.3154 0 0
lwrist -17.4538 0 0
lhand -38.2837 388.734 0
lfingers 7.12502 0 0
lthumb -11.3122 -661.61 0
rclavicle 7.63644e-15 8.23525e-15 0
rhumerus -54.5492 49.0172 -109.051
rradius 112.396 0 0
rwrist -80.9413 0 0
rhand 6.10225 -385.672 0
rfingers 7.12502 0 0
rthumb 31.411 307.107 0
2963
root -5.51928 13.6009 -29.3897 1234.38 -66.754 -151.117
lfemur -67.495 41.7935 -6.96076
ltibia 75.7689 0 0
lfoot -7.73646 -2.07448 0
ltoes -38.6006 0 0
rfemur -34.1901 -17.022 23.2415
rtibia 89.8089 0 0
rfoot -39.9894 -30.1126 0
rtoes -13.6735 0 0
lowerback 16.2214 5.21573 1.36411
upperback -4.32177 7.49781 1.4196
thorax -13.9969 3.41674 -1.27274
lowerneck -2.74421 8.93498 1.25894
upperneck 7.76374 11.7002 1.84005
head 2.98715 5.88715 0.823616
lclavicle 7.65875e-15 8.13106e-15 0
lhumerus 6.29183 13.7643 82.755
lradius 90.2888 0 0
lwrist -17.3956 0 0
lhand -38.247 388.747 0
lfingers 7.12502 0 0
lthumb -11.2768 -661.596 0
rclavicle 7.65875e-15 8.13106e-15 0
rhumerus -54.3182 48.9027 -108.918
rradius 112.368 0 0
rwrist -80.873 0 0
rhand 6.03259 -385.691 0
rfingers 7.12502 0 0
rthumb 31.3441 307.08 0
2964
root -5.46553 13.649 -29.4563 1233.95 -66.763 -150.674
lfemur -67.4727 41.6806 -6.9834
ltibia 75.6342 0 0
lfoot -7.72576 -2.02883 0
ltoes -38.5579 0 0
rfemur -34.1882 -16.9698 23.2767
rtibia 89.7455 0 0
rfoot -39.9489 -30.1053 0
rtoes -13.6622 0 0
lowerback 16.2194 5.21106 1.36256
upperback -4.31433 7.49059 1.41691
thorax -13.9871 3.41363 -1.27239
lowerneck -2.73255 8.89946 1.23438
upperneck 7.73275 11.6534 1.85133
head 2.97569 5.86368 0.830064
lclavicle 7.74288e-15 8.03605e-15 0
lhumerus 6.32316 13.7103 82.7514
lradius 90.2635 0 0
lwrist -17.3385 0 0
lhand -38.2119 388.761 0
lfingers 7.12502 0 0
lthumb -11.2429 -661.581 0
rclavicle 7.74288e-15 8.03605e-15 0
rhumerus -54.0907 48.7899 -108.788
rradius 112.342 0 0
rwrist -80.8065 0 0
rhand 5.96441 -385.709 0
rfingers 7.12502 0 0
rthumb 31.2787 307.054 0
